<?xml version="1.0" encoding="UTF-8" standalone="no"?>
<!DOCTYPE svg PUBLIC "-//W3C//DTD SVG 1.1//EN" "http://www.w3.org/Graphics/SVG/1.1/DTD/svg11.dtd">
<svg width="100%" height="100%" viewBox="0 0 1863 573" version="1.1" xmlns="http://www.w3.org/2000/svg" xmlns:xlink="http://www.w3.org/1999/xlink" xml:space="preserve" xmlns:serif="http://www.serif.com/" style="fill-rule:evenodd;clip-rule:evenodd;stroke-linejoin:round;stroke-miterlimit:2;">
    <g transform="matrix(1,0,0,1,-33.2795,-134.538)">
        <g transform="matrix(1.09527,3.55781e-17,5.92969e-17,0.640919,838.659,183.807)">
            <rect x="288.019" y="402.921" width="292.584" height="9.157" style="fill:rgb(44,0,158);"/>
        </g>
        <g transform="matrix(1.09527,-3.55781e-17,4.74375e-16,0.640919,530.939,183.807)">
            <rect x="288.019" y="402.921" width="292.584" height="9.157" style="fill:rgb(253,30,255);"/>
        </g>
        <g transform="matrix(-0.538318,-0.376934,0.367616,-0.52501,1021.19,877.241)">
            <rect x="288.019" y="402.921" width="292.584" height="9.157" style="fill:rgb(24,255,72);"/>
        </g>
        <g transform="matrix(1.09527,-3.55781e-17,0,0.640919,224.238,183.807)">
            <rect x="288.019" y="402.921" width="292.584" height="9.157" style="fill:rgb(24,255,72);"/>
        </g>
        <g transform="matrix(-0.538318,-0.376934,0.367616,-0.52501,1327.61,877.241)">
            <rect x="288.019" y="402.921" width="292.584" height="9.157" style="fill:rgb(253,30,255);"/>
        </g>
        <g transform="matrix(-0.538318,-0.376934,0.367616,-0.52501,1636.46,877.241)">
            <rect x="288.019" y="402.921" width="292.584" height="9.157" style="fill:rgb(44,0,158);"/>
        </g>
        <g transform="matrix(1.0574,0,0,0.640919,400.351,295.965)">
            <rect x="288.019" y="402.921" width="292.584" height="9.157" style="fill:rgb(113,0,65);"/>
        </g>
        <g transform="matrix(1.0574,0,0,0.640919,1282.21,292.845)">
            <rect x="288.019" y="402.921" width="292.584" height="9.157" style="fill:rgb(113,0,65);"/>
        </g>
        <g transform="matrix(1.97149,0,0,0.640919,-406.274,295.965)">
            <rect x="288.019" y="402.921" width="292.584" height="9.157" style="fill:rgb(113,0,65);"/>
        </g>
        <g transform="matrix(-0.538318,-0.376934,0.367616,-0.52501,707.677,877.241)">
            <rect x="288.019" y="402.921" width="292.584" height="9.157" style="fill:rgb(255,19,19);"/>
        </g>
        <g transform="matrix(1.31433,3.55781e-17,1.42313e-16,0.640919,-216.998,183.807)">
            <rect x="288.019" y="402.921" width="292.584" height="9.157" style="fill:rgb(255,19,19);"/>
        </g>
        <g transform="matrix(1.0574,0,0,0.640919,710.382,295.965)">
            <rect x="288.019" y="402.921" width="292.584" height="9.157" style="fill:rgb(113,0,65);"/>
        </g>
        <g transform="matrix(1.0574,0,0,0.640919,1019.76,293.031)">
            <rect x="288.019" y="402.921" width="292.584" height="9.157" style="fill:rgb(113,0,65);"/>
        </g>
        <g transform="matrix(1.18091,0,0,1.30056,1151.29,-102.541)">
            <ellipse cx="408.493" cy="509.484" rx="22.795" ry="20.698" style="fill:rgb(113,0,65);"/>
        </g>
        <g transform="matrix(1.18091,7.11563e-17,-1.42313e-16,1.30056,222.507,-105.476)">
            <ellipse cx="408.493" cy="509.484" rx="22.795" ry="20.698" style="fill:rgb(113,0,65);"/>
        </g>
        <g transform="matrix(1.18091,7.11563e-17,-1.42313e-16,1.30056,531.884,-105.476)">
            <ellipse cx="408.493" cy="509.484" rx="22.795" ry="20.698" style="fill:rgb(113,0,65);"/>
        </g>
        <g transform="matrix(1.18091,7.11563e-17,-1.42313e-16,1.30056,841.914,-105.476)">
            <ellipse cx="408.493" cy="509.484" rx="22.795" ry="20.698" style="fill:rgb(113,0,65);"/>
        </g>
        <g transform="matrix(0.838356,0.969673,-0.969673,0.838356,950.199,-321.262)">
            <text x="435.371px" y="599.5px" style="font-family:'Arial-BoldMT', 'Arial', sans-serif;font-weight:700;font-size:20px;">Project</text>
            <text x="441.494px" y="620.154px" style="font-family:'Arial-BoldMT', 'Arial', sans-serif;font-weight:700;font-size:20px;">Setup</text>
        </g>
        <g transform="matrix(0.838356,0.969673,-0.969673,0.838356,1260.23,-321.262)">
            <text x="439.478px" y="599.5px" style="font-family:'Arial-BoldMT', 'Arial', sans-serif;font-weight:700;font-size:20px;">Data</text>
            <text x="430.045px" y="620.154px" style="font-family:'Arial-BoldMT', 'Arial', sans-serif;font-weight:700;font-size:20px;">Import</text>
        </g>
        <g transform="matrix(0.838356,0.969673,-0.969673,0.838356,1569.61,-321.262)">
            <text x="439.478px" y="599.5px" style="font-family:'Arial-BoldMT', 'Arial', sans-serif;font-weight:700;font-size:20px;">Data</text>
            <text x="429.483px" y="620.154px" style="font-family:'Arial-BoldMT', 'Arial', sans-serif;font-weight:700;font-size:20px;">Export</text>
        </g>
        <g transform="matrix(0.838356,0.969673,-0.969673,0.838356,1878.98,-321.262)">
            <text x="457.823px" y="599.5px" style="font-family:'Arial-BoldMT', 'Arial', sans-serif;font-weight:700;font-size:20px;">Data</text>
            <text x="432.257px" y="620.154px" style="font-family:'Arial-BoldMT', 'Arial', sans-serif;font-weight:700;font-size:20px;">Exchange</text>
        </g>
        <g transform="matrix(1.28184,7.62633e-17,-7.17418e-16,1.28184,-524.377,-207.25)">
            <text x="442.491px" y="599.5px" style="font-family:'Arial-BoldMT', 'Arial', sans-serif;font-weight:700;font-size:20px;">Delivery</text>
        </g>
        <g transform="matrix(1.28184,7.62633e-17,-7.17418e-16,1.28184,-524.377,-319.408)">
            <text x="433.599px" y="599.5px" style="font-family:'Arial-BoldMT', 'Arial', sans-serif;font-weight:700;font-size:20px;">Discovery</text>
        </g>
        <g transform="matrix(1.28184,0,0,1.28184,-523.739,-194.938)">
            <g transform="matrix(0.234093,0,0,0.254919,522.072,401.969)">
                <path d="M533.996,194.34C592.938,194.34 640.792,238.283 640.792,292.41C640.792,346.536 592.938,390.48 533.996,390.48C475.054,390.48 427.201,346.536 427.201,292.41C427.201,238.283 475.054,194.34 533.996,194.34ZM533.996,213.954C581.15,213.954 619.433,249.109 619.433,292.41C619.433,335.711 581.15,370.866 533.996,370.866C486.843,370.866 448.56,335.711 448.56,292.41C448.56,249.109 486.843,213.954 533.996,213.954Z" style="fill:rgb(255,19,19);"/>
            </g>
            <g transform="matrix(0.000119101,-0.286714,0.851624,0.000353763,247.646,631.783)">
                <path d="M546.097,446.052L546.097,451.51L521.154,443.112L546.097,434.715L546.097,440.173L563.058,440.173L563.058,446.052L546.097,446.052Z" style="fill:rgb(255,19,19);"/>
            </g>
            <g transform="matrix(-5.96135e-05,0.286714,-0.851624,-0.000177069,1046,321.158)">
                <path d="M546.097,446.052L546.097,451.51L521.154,443.112L546.097,434.715L546.097,440.173L563.058,440.173L563.058,446.052L546.097,446.052Z" style="fill:rgb(255,19,19);"/>
            </g>
        </g>
        <g transform="matrix(1.28184,0,0,1.28184,-68.5687,-194.938)">
            <g transform="matrix(0.234093,0,0,0.254919,522.072,401.969)">
                <path d="M533.996,194.34C592.938,194.34 640.792,238.283 640.792,292.41C640.792,346.536 592.938,390.48 533.996,390.48C475.054,390.48 427.201,346.536 427.201,292.41C427.201,238.283 475.054,194.34 533.996,194.34ZM533.996,213.954C581.15,213.954 619.433,249.109 619.433,292.41C619.433,335.711 581.15,370.866 533.996,370.866C486.843,370.866 448.56,335.711 448.56,292.41C448.56,249.109 486.843,213.954 533.996,213.954Z" style="fill:rgb(24,255,72);"/>
            </g>
            <g transform="matrix(0.000119101,-0.286714,0.851624,0.000353763,247.646,631.783)">
                <path d="M546.097,446.052L546.097,451.51L521.154,443.112L546.097,434.715L546.097,440.173L563.058,440.173L563.058,446.052L546.097,446.052Z" style="fill:rgb(24,255,72);"/>
            </g>
            <g transform="matrix(-5.96135e-05,0.286714,-0.851624,-0.000177069,1046,321.158)">
                <path d="M546.097,446.052L546.097,451.51L521.154,443.112L546.097,434.715L546.097,440.173L563.058,440.173L563.058,446.052L546.097,446.052Z" style="fill:rgb(24,255,72);"/>
            </g>
        </g>
        <g transform="matrix(1.28184,0,0,1.28184,199.077,-194.938)">
            <g transform="matrix(0.234093,0,0,0.254919,522.072,401.969)">
                <path d="M533.996,194.34C592.938,194.34 640.792,238.283 640.792,292.41C640.792,346.536 592.938,390.48 533.996,390.48C475.054,390.48 427.201,346.536 427.201,292.41C427.201,238.283 475.054,194.34 533.996,194.34ZM533.996,213.954C581.15,213.954 619.433,249.109 619.433,292.41C619.433,335.711 581.15,370.866 533.996,370.866C486.843,370.866 448.56,335.711 448.56,292.41C448.56,249.109 486.843,213.954 533.996,213.954Z" style="fill:rgb(253,30,255);"/>
            </g>
            <g transform="matrix(0.000119101,-0.286714,0.851624,0.000353763,247.646,631.783)">
                <path d="M546.097,446.052L546.097,451.51L521.154,443.112L546.097,434.715L546.097,440.173L563.058,440.173L563.058,446.052L546.097,446.052Z" style="fill:rgb(253,30,255);"/>
            </g>
            <g transform="matrix(-5.96135e-05,0.286714,-0.851624,-0.000177069,1046,321.158)">
                <path d="M546.097,446.052L546.097,451.51L521.154,443.112L546.097,434.715L546.097,440.173L563.058,440.173L563.058,446.052L546.097,446.052Z" style="fill:rgb(253,30,255);"/>
            </g>
        </g>
        <g transform="matrix(1.28184,0,0,1.28184,522.362,-194.938)">
            <g transform="matrix(0.234093,0,0,0.254919,522.072,401.969)">
                <path d="M533.996,194.34C592.938,194.34 640.792,238.283 640.792,292.41C640.792,346.536 592.938,390.48 533.996,390.48C475.054,390.48 427.201,346.536 427.201,292.41C427.201,238.283 475.054,194.34 533.996,194.34ZM533.996,213.954C581.15,213.954 619.433,249.109 619.433,292.41C619.433,335.711 581.15,370.866 533.996,370.866C486.843,370.866 448.56,335.711 448.56,292.41C448.56,249.109 486.843,213.954 533.996,213.954Z" style="fill:rgb(44,0,158);"/>
            </g>
            <g transform="matrix(0.000119101,-0.286714,0.851624,0.000353763,247.646,631.783)">
                <path d="M546.097,446.052L546.097,451.51L521.154,443.112L546.097,434.715L546.097,440.173L563.058,440.173L563.058,446.052L546.097,446.052Z" style="fill:rgb(44,0,158);"/>
            </g>
            <g transform="matrix(-5.96135e-05,0.286714,-0.851624,-0.000177069,1046,321.158)">
                <path d="M546.097,446.052L546.097,451.51L521.154,443.112L546.097,434.715L546.097,440.173L563.058,440.173L563.058,446.052L546.097,446.052Z" style="fill:rgb(44,0,158);"/>
            </g>
        </g>
        <g transform="matrix(-0.000738253,-0.461536,0.622925,-0.000996404,609.519,656.442)">
            <path d="M768.088,279.523L768.088,346.801L628.391,243.297L768.088,139.793L768.088,207.07L1130.19,207.07L1130.19,279.523L768.088,279.523Z" style="fill:rgb(19,0,199);"/>
        </g>
    </g>
</svg>
